# Blender v2.78 (sub 0) OBJ File: 'CHAHIN_LIGHTHOUSE.blend'
# www.blender.org
mtllib CHAHIN_LIGHTHOUSE.mtl
o Cube.001_Cube.000
v 2.305516 -3.501954 2.292746
v 2.305516 0.196677 2.292746
v 2.305516 -3.501954 -2.292746
v 2.305516 0.196677 -2.292746
v 7.297745 -3.501954 2.292746
v 7.297745 -3.501954 -2.292746
v 7.297745 0.196677 -2.292746
v 2.305516 -3.501954 0.000000
v 1.748379 -0.075850 -2.804491
v 7.854884 -0.075850 -2.804491
v 7.854884 -0.075850 2.804492
v 1.748379 -0.075850 2.804492
v 1.748379 1.819310 0.000000
v 1.748379 0.215795 -2.804491
v 7.854884 0.215795 -2.804491
v 7.854884 0.215795 2.804492
v 1.748379 0.215795 2.804492
v 7.297745 0.196677 2.292746
v 7.297746 -0.384660 -1.146373
v 7.297745 1.507593 0.000000
v 2.305516 1.507593 0.000000
v 7.297745 -3.501954 1.146373
v 7.854884 1.819310 0.000000
v 7.297746 -0.384660 1.146373
v 7.297745 -3.501954 -1.146373
v 1.748379 1.527666 0.000000
v 7.854884 1.527666 0.000000
v 7.429080 -3.501954 1.146373
v 7.429080 -0.384660 -1.146373
v 7.429080 -0.384660 1.146373
v 7.429080 -3.501954 -1.146373
v 7.420600 -3.501954 1.049116
v 7.420600 -3.501954 -1.032158
v 7.420600 -0.527529 -1.032158
v 7.286558 -0.920244 0.528665
v 7.420600 -0.527529 1.049116
v 7.286558 -0.920244 -0.511706
v 7.286557 -3.501954 1.049116
v 7.286557 -3.501954 -1.032158
v 7.286558 -0.527529 -1.032158
v 7.286557 -1.733792 -0.511706
v 7.286558 -0.527529 1.049116
v 7.286557 -1.733792 0.528665
v 5.258585 -2.107405 2.292746
v 5.258585 -0.811027 2.292746
v 4.344677 -0.811027 2.292746
v 4.344677 -2.107405 2.292746
v 4.344677 -2.107405 -2.292746
v 4.344677 -0.811027 -2.292746
v 5.258585 -0.811027 -2.292746
v 5.258585 -2.107405 -2.292746
v 5.258585 -0.811027 -2.395384
v 4.344677 -0.811027 -2.395384
v 4.344677 -0.811027 2.395385
v 5.258585 -0.811027 2.395385
v 5.258585 -2.107405 2.395385
v 4.344677 -2.107405 2.395385
v 4.344677 -2.107405 -2.395384
v 5.258585 -2.107405 -2.395384
v 0.003974 12.603896 -2.906322
v 1.443443 12.603896 -2.520618
v 2.497208 12.603896 -1.466853
v 2.882913 12.603896 -0.027383
v 2.497208 12.603896 1.412086
v 1.443443 12.603896 2.465851
v 0.003974 12.603896 2.851556
v -1.435495 12.603896 2.465851
v -2.489260 12.603896 1.412087
v -2.874965 12.603896 -0.027382
v -2.489261 12.603896 -1.466851
v -1.435497 12.603896 -2.520617
v 1.907619 12.603896 -3.324593
v 3.811263 12.603896 -0.027383
v 3.301183 12.603896 1.876261
v 1.907619 12.603896 3.269825
v -3.293235 12.603896 1.876262
v 0.003974 12.603896 -3.834673
v 3.301183 12.603896 -1.931028
v 0.003974 12.603896 3.779906
v -1.899670 12.603896 3.269827
v -3.803316 12.603896 -0.027382
v -3.293237 12.603896 -1.931026
v -1.899673 12.603896 -3.324592
v 0.003974 13.447145 -4.018035
v 1.999299 13.447145 -3.483389
v 3.459980 13.447145 -2.022709
v 3.994625 13.447145 -0.027383
v 3.459980 13.447145 1.967942
v 1.999300 13.447145 3.428621
v 0.003974 13.447145 3.963268
v -1.991351 13.447145 3.428622
v -3.452031 13.447145 1.967943
v -3.986678 13.447145 -0.027382
v -3.452034 13.447145 -2.022707
v -1.991354 13.447145 -3.483388
v 0.003974 13.447145 -2.451046
v 2.102928 13.447145 -1.239215
v 2.427636 13.447145 -0.027383
v -1.207857 13.447145 2.071570
v -2.094979 13.447145 1.184449
v -2.419689 13.447145 -0.027382
v 1.215805 13.447145 -2.126337
v 2.102928 13.447145 1.184448
v 1.215805 13.447145 2.071570
v 0.003974 13.447145 2.396279
v -2.094980 13.447145 -1.239214
v -1.207859 13.447145 -2.126336
v 1.215805 17.785648 -2.126337
v 0.003974 17.785648 -2.451046
v 2.427636 17.785648 -0.027383
v 1.215805 17.785648 2.071570
v 0.003974 17.785648 2.396279
v -1.207859 17.785648 -2.126336
v 2.102928 17.785648 -1.239215
v 2.102928 17.785648 1.184448
v -1.207857 17.785648 2.071570
v -2.094979 17.785648 1.184449
v -2.419689 17.785648 -0.027382
v -2.094980 17.785648 -1.239214
v 1.567972 17.785648 -2.736308
v 0.003974 17.785648 -3.155380
v 2.712899 17.785648 -1.591382
v 3.131970 17.785648 -0.027383
v 2.712899 17.785648 1.536615
v 1.567972 17.785648 2.681541
v 0.003974 17.785648 3.100614
v -1.560024 17.785648 2.681542
v -2.704950 17.785648 1.536616
v -3.124023 17.785648 -0.027382
v -2.704952 17.785648 -1.591380
v -1.560026 17.785648 -2.736307
v 2.072861 14.933107 -1.269281
v 1.245872 14.933107 -2.096270
v 1.245872 17.302170 -2.096270
v 2.072861 17.302170 -1.269281
v -2.408684 14.933107 0.013689
v -2.105984 14.933107 1.143377
v -2.105984 17.302170 1.143377
v -2.408684 17.302170 0.013689
v 0.045046 14.933107 2.385274
v 1.174733 14.933107 2.082575
v 1.174733 17.302170 2.082575
v 0.045046 17.302170 2.385274
v 2.416631 14.933107 -0.068455
v 2.113933 14.933107 -1.198143
v 2.113933 17.302170 -1.198143
v 2.416631 17.302170 -0.068455
v -2.105986 14.933107 -1.198142
v -2.408684 14.933107 -0.068454
v -2.408684 17.302170 -0.068454
v -2.105986 17.302170 -1.198142
v -1.166786 14.933107 2.082576
v -0.037098 14.933107 2.385274
v -0.037098 17.302170 2.385274
v -1.166786 17.302170 2.082576
v 2.113933 14.933107 1.143376
v 2.416631 14.933107 0.013688
v 2.416631 17.302170 0.013688
v 2.113933 17.302170 1.143376
v -1.237926 14.933107 -2.096269
v -2.064914 14.933107 -1.269280
v -2.064914 17.302170 -1.269280
v -1.237926 17.302170 -2.096269
v 1.174733 14.933107 -2.137342
v 0.045045 14.933107 -2.440041
v 0.045045 17.302170 -2.440041
v 1.174733 17.302170 -2.137342
v -2.064913 14.933107 1.214515
v -1.237924 14.933107 2.041504
v -1.237924 17.302170 2.041504
v -2.064913 17.302170 1.214515
v 1.245872 14.933107 2.041503
v 2.072861 14.933107 1.214514
v 2.072861 17.302170 1.214514
v 1.245872 17.302170 2.041503
v -0.037098 14.933107 -2.440041
v -1.166787 14.933107 -2.137341
v -1.166787 17.302170 -2.137341
v -0.037098 17.302170 -2.440041
v 0.003974 -0.769358 -3.849888
v 1.915226 -0.769358 -3.337770
v 3.314360 -0.769358 -1.938636
v 3.826478 -0.769358 -0.027383
v 3.314359 -0.769358 1.883869
v 1.915226 -0.769358 3.283002
v 0.003974 -0.769358 3.795121
v -1.907277 -0.769358 3.283003
v -3.306411 -0.769358 1.883870
v -3.818531 -0.769358 -0.027382
v -3.306414 -0.769358 -1.938634
v -1.907281 -0.769358 -3.337768
v 0.003974 -3.432039 -4.661818
v 2.321191 -3.432039 -4.040922
v 2.212639 -0.769358 -3.852905
v 4.017512 -3.432039 -2.344601
v 3.829495 -0.769358 -2.236049
v 4.638408 -3.432039 -0.027383
v 4.421305 -0.769358 -0.027383
v 4.017511 -3.432039 2.289834
v 3.829495 -0.769358 2.181282
v 2.321191 -3.432039 3.986154
v 2.212640 -0.769358 3.798137
v 0.003974 -3.432039 4.607050
v 0.003974 -0.769358 4.389947
v -2.313242 -3.432039 3.986155
v -2.204691 -0.769358 3.798138
v -4.009563 -3.432039 2.289835
v -3.821547 -0.769358 2.181283
v -4.630461 -3.432039 -0.027382
v -4.413358 -0.769358 -0.027382
v -4.009565 -3.432039 -2.344599
v -3.821548 -0.769358 -2.236047
v -2.313246 -3.432039 -4.040920
v -2.204695 -0.769358 -3.852903
v 0.003974 -0.769358 -4.444715
v 3.887006 13.392673 0.208708
v 3.887006 14.216070 0.208708
v 3.831517 13.392673 0.153220
v 3.831517 14.216070 0.153220
v 3.942493 13.392673 0.153220
v 3.942493 14.216070 0.153220
v 3.887006 13.392673 0.097732
v 3.887006 14.216070 0.097732
v 0.208708 13.392673 3.887006
v 0.208708 14.216070 3.887006
v 0.153220 13.392673 3.831517
v 0.153220 14.216070 3.831517
v 0.153220 13.392673 3.942493
v 0.153220 14.216070 3.942493
v 0.097732 13.392673 3.887006
v 0.097732 14.216070 3.887006
v -0.208708 13.392673 -3.887005
v -0.208708 14.216070 -3.887005
v -0.153220 13.392673 -3.831517
v -0.153220 14.216070 -3.831517
v -0.153220 13.392673 -3.942493
v -0.153220 14.216070 -3.942493
v -0.097732 13.392673 -3.887005
v -0.097732 14.216070 -3.887005
v -3.887005 13.392673 -0.208708
v -3.887005 14.216070 -0.208708
v -3.831517 13.392673 -0.153220
v -3.831517 14.216070 -0.153220
v -3.942493 13.392673 -0.153220
v -3.942493 14.216070 -0.153220
v -3.887005 13.392673 -0.097732
v -3.887005 14.216070 -0.097732
v 2.591936 13.392673 2.744424
v 2.591936 14.216070 2.744424
v 2.591936 13.392673 2.657837
v 2.591936 14.216070 2.657837
v 2.678523 13.392673 2.744424
v 2.678523 14.216070 2.744424
v 2.678523 13.392673 2.657837
v 2.678523 14.216070 2.657837
v -2.591935 13.392673 2.744424
v -2.591935 14.216070 2.744424
v -2.591935 13.392673 2.657837
v -2.591935 14.216070 2.657837
v -2.678522 13.392673 2.744424
v -2.678522 14.216070 2.744424
v -2.678522 13.392673 2.657837
v -2.678522 14.216070 2.657837
v 2.591936 13.392673 -2.744424
v 2.591936 14.216070 -2.744424
v 2.591936 13.392673 -2.657837
v 2.591936 14.216070 -2.657837
v 2.678523 13.392673 -2.744424
v 2.678523 14.216070 -2.744424
v 2.678523 13.392673 -2.657837
v 2.678523 14.216070 -2.657837
v -2.591935 13.392673 -2.744424
v -2.591935 14.216070 -2.744424
v -2.591935 13.392673 -2.657837
v -2.591935 14.216070 -2.657837
v -2.678522 13.392673 -2.744424
v -2.678522 14.216070 -2.744424
v -2.678522 13.392673 -2.657837
v -2.678522 14.216070 -2.657837
v 0.003974 14.148855 -4.018035
v 1.999299 14.148855 -3.483389
v 3.459980 14.148855 -2.022709
v 3.994625 14.148855 -0.027383
v 3.459980 14.148855 1.967942
v 1.999300 14.148855 3.428621
v 0.003974 14.148855 3.963268
v -1.991351 14.148855 3.428622
v -3.452031 14.148855 1.967943
v -3.986678 14.148855 -0.027382
v -3.452034 14.148855 -2.022707
v -1.991354 14.148855 -3.483388
v 0.003974 14.148855 -3.876801
v 1.928683 14.148855 -3.361077
v 3.337668 14.148855 -1.952092
v 3.853391 14.148855 -0.027383
v 3.337668 14.148855 1.897325
v 1.928683 14.148855 3.306309
v 0.003974 14.148855 3.822034
v -1.920734 14.148855 3.306311
v -3.329719 14.148855 1.897326
v -3.845444 14.148855 -0.027382
v -3.329721 14.148855 -1.952091
v -1.920738 14.148855 -3.361076
v 1.999299 14.238175 -3.483389
v 0.003974 14.238175 -4.018035
v 3.459980 14.238175 -2.022709
v 3.994625 14.238175 -0.027383
v 3.459980 14.238175 1.967942
v 1.999300 14.238175 3.428621
v 0.003974 14.238175 3.963268
v -1.991351 14.238175 3.428622
v -3.452031 14.238175 1.967943
v -3.986678 14.238175 -0.027382
v -3.452034 14.238175 -2.022707
v -1.991354 14.238175 -3.483388
v 1.928683 14.238175 -3.361077
v 0.003974 14.238175 -3.876801
v 3.337668 14.238175 -1.952092
v 3.853391 14.238175 -0.027383
v 3.337668 14.238175 1.897325
v 1.928683 14.238175 3.306309
v 0.003974 14.238175 3.822034
v -1.920734 14.238175 3.306311
v -3.329719 14.238175 1.897326
v -3.845444 14.238175 -0.027382
v -3.329721 14.238175 -1.952091
v -1.920738 14.238175 -3.361076
v 1.567972 18.187439 -2.748484
v 0.003974 18.187439 -3.167556
v 2.712899 18.187439 -1.603557
v 3.131970 18.187439 -0.039559
v 2.712899 18.187439 1.524439
v 1.567972 18.187439 2.669365
v 0.003974 18.187439 3.088438
v -1.560024 18.187439 2.669366
v -2.704950 18.187439 1.524440
v -3.124023 18.187439 -0.039558
v -2.704952 18.187439 -1.603556
v -1.560026 18.187439 -2.748482
v 0.026993 21.433098 -0.079429
v 0.003974 21.433098 -0.085597
v 0.043845 21.433098 -0.062578
v 0.050013 21.433098 -0.039559
v 0.043845 21.433098 -0.016539
v 0.026993 21.433098 0.000312
v 0.003974 21.433098 0.006480
v -0.019045 21.433098 0.000312
v -0.035897 21.433098 -0.016539
v -0.042064 21.433098 -0.039559
v -0.035897 21.433098 -0.062578
v -0.019045 21.433098 -0.079429
v 7.178430 -0.920244 0.528665
v 7.178430 -1.733792 0.528665
v 7.178430 -0.920244 -0.511706
v 7.178430 -1.733792 -0.511706
v 4.440875 -1.970949 -2.107770
v 4.440875 -1.970949 2.107771
v 5.162387 -1.970949 2.107771
v 5.162387 -0.947483 2.107771
v 4.440875 -0.947483 -2.107770
v 5.162387 -0.947483 -2.107770
v 5.162387 -1.970949 -2.107770
v 4.440875 -0.947483 2.107771
v 4.440875 -1.970949 2.395385
v 4.440875 -1.970949 -2.395384
v 5.162387 -1.970949 -2.395384
v 4.440875 -0.947483 2.395385
v 4.440875 -0.947483 -2.395384
v 5.162387 -0.947483 -2.395384
v 5.162387 -1.970949 2.395385
v 5.162387 -0.947483 2.395385
v 2.031359 14.933107 -1.235230
v 1.226994 14.933107 -2.039595
v 2.031359 17.302170 -1.235230
v 1.226994 17.302170 -2.039595
v -2.327581 14.933107 0.012641
v -2.033163 14.933107 1.111423
v -2.327581 17.302170 0.012641
v -2.033163 17.302170 1.111423
v 0.059020 14.933107 2.319345
v 1.157802 14.933107 2.024927
v 0.059020 17.302170 2.319345
v 1.157802 17.302170 2.024927
v 2.365724 14.933107 -0.067256
v 2.071307 14.933107 -1.166038
v 2.365724 17.302170 -0.067256
v 2.071307 17.302170 -1.166038
v -2.033164 14.933107 -1.166037
v -2.327581 14.933107 -0.067255
v -2.033164 17.302170 -1.166037
v -2.327581 17.302170 -0.067255
v -1.119658 14.933107 2.024927
v -0.020876 14.933107 2.319345
v -1.119658 17.302170 2.024927
v -0.020876 17.302170 2.319345
v 2.071307 14.933107 1.111423
v 2.365724 14.933107 0.012640
v 2.071307 17.302170 1.111423
v 2.365724 17.302170 0.012640
v -1.188853 14.933107 -2.039594
v -1.993216 14.933107 -1.235229
v -1.188853 17.302170 -2.039594
v -1.993216 17.302170 -1.235229
v 1.157802 14.933107 -2.079543
v 0.059020 14.933107 -2.373960
v 1.157802 17.302170 -2.079543
v 0.059020 17.302170 -2.373960
v -1.993215 14.933107 1.180615
v -1.188850 14.933107 1.984979
v -1.993215 17.302170 1.180615
v -1.188850 17.302170 1.984979
v 1.226994 14.933107 1.984979
v 2.031359 14.933107 1.180614
v 1.226994 17.302170 1.984979
v 2.031359 17.302170 1.180614
v -0.020876 14.933107 -2.373960
v -1.119660 14.933107 -2.079542
v -0.020876 17.302170 -2.373960
v -1.119660 17.302170 -2.079542
v 6.997251 -0.920244 0.513528
v 6.997251 -1.733792 0.513528
v 6.997251 -0.920244 -0.498381
v 6.997251 -1.733792 -0.498381
vt 0.3112 0.9227
vt 0.3627 0.9022
vt 0.3129 0.9608
vt 0.8767 0.8730
vt 0.8264 0.8948
vt 0.8266 0.8873
vt 0.8668 0.8667
vt 0.7848 0.8156
vt 0.8250 0.7950
vt 0.8244 0.7984
vt 0.7894 0.8184
vt 0.7853 0.8611
vt 0.7877 0.8593
vt 0.8272 0.8839
vt 0.7749 0.8093
vt 0.8252 0.7875
vt 0.8767 0.8164
vt 0.8663 0.8212
vt 0.7749 0.8659
vt 0.8622 0.8639
vt 0.8639 0.8230
vt 0.2698 0.8933
vt 0.3129 0.8784
vt 0.3107 0.8817
vt 0.2710 0.8942
vt 0.2442 0.9407
vt 0.2470 0.9273
vt 0.2477 0.9288
vt 0.2458 0.9392
vt 0.2705 0.9102
vt 0.2699 0.9165
vt 0.2589 0.8666
vt 0.2501 0.8664
vt 0.2509 0.8653
vt 0.2582 0.8652
vt 0.2354 0.8943
vt 0.1349 0.8927
vt 0.1859 0.8258
vt 0.2359 0.8777
vt 0.2358 0.9110
vt 0.1841 0.9608
vt 0.2693 0.8816
vt 0.3167 0.8398
vt 0.3084 0.9201
vt 0.2718 0.9088
vt 0.2718 0.9077
vt 0.3065 0.9179
vt 0.3077 0.8848
vt 0.2712 0.8958
vt 0.0729 0.4506
vt 0.0718 0.0850
vt 0.1345 0.3016
vt 0.1306 0.4090
vt 0.2726 0.9066
vt 0.3042 0.9158
vt 0.3215 0.0817
vt 0.3215 0.4563
vt 0.2606 0.4083
vt 0.2575 0.2941
vt 0.2722 0.8966
vt 0.1421 0.3970
vt 0.2474 0.3977
vt 0.3059 0.8876
vt 0.2594 0.9437
vt 0.2569 0.9258
vt 0.2427 0.9425
vt 0.2459 0.9264
vt 0.2469 0.8500
vt 0.2492 0.8679
vt 0.2632 0.8523
vt 0.2599 0.8676
vt 0.2533 0.8570
vt 0.2529 0.8627
vt 0.2505 0.8542
vt 0.2560 0.9273
vt 0.2617 0.8540
vt 0.2497 0.9309
vt 0.2483 0.9362
vt 0.2489 0.8517
vt 0.2528 0.9369
vt 0.2558 0.9397
vt 0.2575 0.9421
vt 0.2927 0.8255
vt 0.2513 0.6848
vt 0.2443 0.6904
vt 0.3503 0.7916
vt 0.2413 0.6987
vt 0.3836 0.7334
vt 0.2432 0.7074
vt 0.3836 0.6664
vt 0.2493 0.7141
vt 0.3504 0.6083
vt 0.2581 0.7171
vt 0.2926 0.5747
vt 0.2671 0.7156
vt 0.2257 0.5749
vt 0.2741 0.7100
vt 0.1681 0.6088
vt 0.2771 0.7017
vt 0.1349 0.6670
vt 0.2753 0.6930
vt 0.1349 0.7340
vt 0.2691 0.6863
vt 0.1681 0.7921
vt 0.7052 0.8230
vt 0.6549 0.8226
vt 0.6626 0.7974
vt 0.6993 0.7972
vt 0.2604 0.6833
vt 0.2259 0.8257
vt 0.5865 0.7034
vt 0.6117 0.6597
vt 0.6298 0.6790
vt 0.6118 0.7111
vt 0.5865 0.7537
vt 0.6122 0.7477
vt 0.6115 0.7973
vt 0.6308 0.7793
vt 0.6554 0.6344
vt 0.6615 0.6602
vt 0.7058 0.6344
vt 0.6982 0.6598
vt 0.7496 0.6597
vt 0.7302 0.6778
vt 0.7748 0.7035
vt 0.7489 0.7095
vt 0.7747 0.7542
vt 0.7493 0.7464
vt 0.7491 0.7980
vt 0.7311 0.7786
vt 0.7197 0.7682
vt 0.7342 0.7431
vt 0.7044 0.7530
vt 0.7134 0.7375
vt 0.6412 0.7681
vt 0.6660 0.7824
vt 0.6949 0.6748
vt 0.6661 0.6749
vt 0.7342 0.7142
vt 0.6947 0.7825
vt 0.6412 0.6893
vt 0.6268 0.7144
vt 0.6268 0.7431
vt 0.7198 0.6892
vt 0.6564 0.7529
vt 0.6715 0.7617
vt 0.6894 0.6956
vt 0.6718 0.6955
vt 0.7134 0.7198
vt 0.6891 0.7618
vt 0.6565 0.7044
vt 0.6476 0.7200
vt 0.6476 0.7375
vt 0.7047 0.7044
vt 0.6861 0.7485
vt 0.6833 0.7372
vt 0.6836 0.7373
vt 0.6862 0.7479
vt 0.6723 0.7310
vt 0.6743 0.7347
vt 0.6741 0.7347
vt 0.6723 0.7313
vt 0.6869 0.7347
vt 0.6950 0.7435
vt 0.6944 0.7434
vt 0.6868 0.7350
vt 0.6609 0.7342
vt 0.6613 0.7343
vt 0.6660 0.7430
vt 0.6662 0.7423
vt 0.6745 0.7351
vt 0.6784 0.7369
vt 0.6781 0.7370
vt 0.6746 0.7353
vt 0.6663 0.7434
vt 0.6667 0.7433
vt 0.6749 0.7486
vt 0.6748 0.7479
vt 0.6786 0.7371
vt 0.6830 0.7371
vt 0.6828 0.7373
vt 0.6789 0.7373
vt 0.6859 0.7334
vt 0.6827 0.7355
vt 0.6823 0.7337
vt 0.6846 0.7322
vt 0.6738 0.7267
vt 0.6757 0.7236
vt 0.6768 0.7248
vt 0.6755 0.7272
vt 0.6757 0.7337
vt 0.6739 0.7304
vt 0.6755 0.7300
vt 0.6769 0.7324
vt 0.6825 0.7215
vt 0.6857 0.7234
vt 0.6844 0.7246
vt 0.6820 0.7232
vt 0.6876 0.7302
vt 0.6859 0.7298
vt 0.6789 0.7354
vt 0.6794 0.7338
vt 0.6787 0.7216
vt 0.6792 0.7233
vt 0.6876 0.7266
vt 0.6859 0.7270
vt 0.6852 0.7272
vt 0.6839 0.7251
vt 0.6762 0.7274
vt 0.6762 0.7298
vt 0.6794 0.7240
vt 0.6773 0.7253
vt 0.6796 0.7331
vt 0.6820 0.7330
vt 0.6852 0.7296
vt 0.6818 0.7239
vt 0.6774 0.7319
vt 0.6841 0.7317
vt 0.6951 0.7136
vt 0.6861 0.7089
vt 0.6868 0.7221
vt 0.6831 0.7199
vt 0.6951 0.7428
vt 0.7003 0.7341
vt 0.6872 0.7346
vt 0.6890 0.7308
vt 0.6856 0.7087
vt 0.6755 0.7085
vt 0.6828 0.7197
vt 0.6785 0.7201
vt 0.7002 0.7335
vt 0.7002 0.7235
vt 0.6892 0.7305
vt 0.6892 0.7263
vt 0.6754 0.7487
vt 0.6856 0.7486
vt 0.6751 0.7090
vt 0.6664 0.7139
vt 0.6781 0.7200
vt 0.6746 0.7223
vt 0.6607 0.7236
vt 0.6609 0.7336
vt 0.6720 0.7264
vt 0.6723 0.7307
vt 0.7003 0.7229
vt 0.6951 0.7143
vt 0.6892 0.7260
vt 0.6870 0.7223
vt 0.6661 0.7143
vt 0.6611 0.7232
vt 0.6744 0.7225
vt 0.6722 0.7261
vt 0.8867 0.7003
vt 0.8766 0.6841
vt 0.8807 0.6798
vt 0.8923 0.6986
vt 0.8430 0.7467
vt 0.8620 0.7462
vt 0.8637 0.7518
vt 0.8416 0.7525
vt 0.8599 0.6751
vt 0.8612 0.6693
vt 0.8408 0.6756
vt 0.8391 0.6700
vt 0.8246 0.6857
vt 0.8203 0.6816
vt 0.8309 0.7874
vt 0.8719 0.7874
vt 0.7954 0.7669
vt 0.8221 0.7420
vt 0.7749 0.7314
vt 0.8105 0.7232
vt 0.7749 0.6904
vt 0.8098 0.7011
vt 0.7954 0.6549
vt 0.8309 0.6344
vt 0.8719 0.6344
vt 0.9074 0.6549
vt 0.9279 0.6904
vt 0.9279 0.7314
vt 0.8930 0.7207
vt 0.9074 0.7669
vt 0.8826 0.7402
vt 0.8262 0.7377
vt 0.8873 0.7193
vt 0.8162 0.7215
vt 0.8782 0.7361
vt 0.8156 0.7024
vt 0.5864 0.6344
vt 0.5864 0.6344
vt 0.5864 0.6344
vt 0.5864 0.6344
vt 0.5864 0.6344
vt 0.5864 0.6344
vt 0.5864 0.6344
vt 0.5864 0.6344
vt 0.5864 0.6344
vt 0.5864 0.6344
vt 0.5864 0.6344
vt 0.5864 0.6344
vt 0.5864 0.6344
vt 0.5864 0.6344
vt 0.5864 0.6344
vt 0.5864 0.6344
vt 0.5864 0.6344
vt 0.5864 0.6344
vt 0.5864 0.6344
vt 0.5864 0.6344
vt 0.5864 0.6344
vt 0.5864 0.6344
vt 0.5864 0.6344
vt 0.5864 0.6344
vt 0.5864 0.6344
vt 0.5864 0.6344
vt 0.5864 0.6344
vt 0.5864 0.6344
vt 0.5864 0.6344
vt 0.5864 0.6344
vt 0.5864 0.6344
vt 0.5864 0.6344
vt 0.5864 0.6344
vt 0.5864 0.6344
vt 0.5864 0.6344
vt 0.5864 0.6344
vt 0.5864 0.6344
vt 0.5864 0.6344
vt 0.5864 0.6344
vt 0.5864 0.6344
vt 0.5864 0.6344
vt 0.5864 0.6344
vt 0.5864 0.6344
vt 0.5864 0.6344
vt 0.5864 0.6344
vt 0.5864 0.6344
vt 0.5864 0.6344
vt 0.5864 0.6344
vt 0.5864 0.6344
vt 0.5864 0.6344
vt 0.5864 0.6344
vt 0.5864 0.6344
vt 0.5864 0.6344
vt 0.5864 0.6344
vt 0.5864 0.6344
vt 0.5864 0.6344
vt 0.5864 0.6344
vt 0.5864 0.6344
vt 0.5864 0.6344
vt 0.5864 0.6344
vt 0.5864 0.6344
vt 0.5864 0.6344
vt 0.5864 0.6344
vt 0.5864 0.6344
vt 0.5864 0.6344
vt 0.5864 0.6344
vt 0.5864 0.6344
vt 0.5864 0.6344
vt 0.5864 0.6344
vt 0.5864 0.6344
vt 0.5864 0.6344
vt 0.5864 0.6344
vt 0.5864 0.6344
vt 0.5864 0.6344
vt 0.5864 0.6344
vt 0.5864 0.6344
vt 0.5864 0.6344
vt 0.5864 0.6344
vt 0.5864 0.6344
vt 0.5864 0.6344
vt 0.5864 0.6344
vt 0.5864 0.6344
vt 0.5864 0.6344
vt 0.5864 0.6344
vt 0.5864 0.6344
vt 0.5864 0.6344
vt 0.5864 0.6344
vt 0.5864 0.6344
vt 0.5864 0.6344
vt 0.5864 0.6344
vt 0.5864 0.6344
vt 0.5864 0.6344
vt 0.5864 0.6344
vt 0.5864 0.6344
vt 0.5864 0.6344
vt 0.5864 0.6344
vt 0.5864 0.6344
vt 0.5864 0.6344
vt 0.5864 0.6344
vt 0.5864 0.6344
vt 0.5864 0.6344
vt 0.5864 0.6344
vt 0.5864 0.6344
vt 0.5864 0.6344
vt 0.5864 0.6344
vt 0.5864 0.6344
vt 0.5864 0.6344
vt 0.5864 0.6344
vt 0.5864 0.6344
vt 0.5864 0.6344
vt 0.5864 0.6344
vt 0.5864 0.6344
vt 0.6807 0.7286
vt 0.6808 0.7286
vt 0.6805 0.7285
vt 0.6805 0.7284
vt 0.6806 0.7284
vt 0.6807 0.7283
vt 0.6807 0.7283
vt 0.6808 0.7284
vt 0.6808 0.7285
vt 0.6808 0.7285
vt 0.6806 0.7286
vt 0.6806 0.7286
vt 0.6758 0.7483
vt 0.2466 0.3063
vt 0.1461 0.3112
vt 0.4031 0.0817
vt 0.4031 0.1973
vt 0.3216 0.1972
vt 0.3216 0.0817
vt 0.4031 0.1974
vt 0.4031 0.3129
vt 0.3216 0.3129
vt 0.3216 0.1974
vt 0.2552 0.9284
vt 0.2602 0.8554
vt 0.2576 0.8581
vt 0.2564 0.8633
vt 0.2534 0.9311
vt 0.7311 0.2817
vt 0.8003 0.2817
vt 0.8003 0.4257
vt 0.7311 0.4257
vt 0.7311 0.1374
vt 0.8003 0.1374
vt 0.8003 0.2814
vt 0.7311 0.2814
vt 0.6617 0.1374
vt 0.7309 0.1374
vt 0.7309 0.2814
vt 0.6617 0.2814
vt 0.8700 0.1374
vt 0.9391 0.1374
vt 0.9391 0.2814
vt 0.8700 0.2814
vt 0.5228 0.2817
vt 0.5920 0.2817
vt 0.5920 0.4257
vt 0.5228 0.4257
vt 0.5923 0.1374
vt 0.6614 0.1374
vt 0.6614 0.2814
vt 0.5923 0.2814
vt 0.8005 0.1374
vt 0.8697 0.1374
vt 0.8697 0.2814
vt 0.8005 0.2814
vt 0.8700 0.2817
vt 0.9391 0.2817
vt 0.9391 0.4257
vt 0.8700 0.4257
vt 0.6617 0.2817
vt 0.7309 0.2817
vt 0.7309 0.4257
vt 0.6617 0.4257
vt 0.8005 0.2817
vt 0.8697 0.2817
vt 0.8697 0.4257
vt 0.8005 0.4257
vt 0.5923 0.2817
vt 0.6614 0.2817
vt 0.6614 0.4257
vt 0.5923 0.4257
vt 0.5228 0.1374
vt 0.5920 0.1374
vt 0.5920 0.2814
vt 0.5228 0.2814
vt 0.5844 0.4260
vt 0.5844 0.4754
vt 0.5228 0.4754
vt 0.5228 0.4260
vt 0.6749 0.7095
vt 0.6674 0.7142
vt 0.1646 0.3254
vt 0.1584 0.3824
vt 0.6747 0.7219
vt 0.2267 0.3784
vt 0.6777 0.7199
vt 0.6851 0.7091
vt 0.6763 0.7093
vt 0.2304 0.3247
vt 0.6787 0.7197
vt 0.6824 0.7195
vt 0.6942 0.7140
vt 0.6864 0.7096
vt 0.6834 0.7198
vt 0.6662 0.7149
vt 0.6619 0.7229
vt 0.6867 0.7216
vt 0.6721 0.7258
vt 0.6740 0.7227
vt 0.6610 0.7240
vt 0.6614 0.7331
vt 0.6720 0.7305
vt 0.6718 0.7267
vt 0.6996 0.7330
vt 0.6998 0.7241
vt 0.6894 0.7265
vt 0.6895 0.7302
vt 0.6949 0.7422
vt 0.6997 0.7343
vt 0.6891 0.7311
vt 0.6876 0.7345
vt 0.6994 0.7228
vt 0.6950 0.7151
vt 0.6873 0.7224
vt 0.6893 0.7255
vt 0.6852 0.7483
vn 1.0000 0.0000 0.0000
vn 0.0313 -0.8677 0.4961
vn -1.0000 0.0000 0.0000
vn 0.0000 0.0000 -1.0000
vn -0.0313 -0.8677 -0.4961
vn 0.0000 -0.8826 -0.4700
vn 0.0000 -0.8826 0.4700
vn 0.0000 0.8681 0.4964
vn 0.0000 0.0000 1.0000
vn 0.0313 -0.8677 -0.4961
vn 0.0000 0.8681 -0.4964
vn -0.0313 -0.8677 0.4961
vn 0.9962 0.0000 -0.0869
vn 0.9973 0.0000 0.0740
vn 0.0000 1.0000 0.0000
vn 0.9982 -0.0592 0.0000
vn 0.0000 -1.0000 0.0000
vn 0.2582 0.0680 -0.9637
vn 0.7055 0.0680 -0.7055
vn 0.9637 0.0680 -0.2582
vn 0.9637 0.0680 0.2582
vn 0.7055 0.0680 0.7055
vn 0.2582 0.0680 0.9637
vn -0.2582 0.0680 0.9637
vn -0.7055 0.0680 0.7055
vn -0.9637 0.0680 0.2582
vn -0.9637 0.0680 -0.2582
vn -0.7055 0.0680 -0.7055
vn -0.2582 0.0680 -0.9637
vn 0.2533 -0.2056 0.9453
vn 0.9453 -0.2056 -0.2533
vn -0.9453 -0.2056 -0.2533
vn -0.2533 -0.2056 0.9453
vn 0.9453 -0.2056 0.2533
vn -0.6920 -0.2056 -0.6920
vn 0.2533 -0.2056 -0.9453
vn -0.6920 -0.2056 0.6920
vn 0.6920 -0.2056 0.6920
vn -0.2533 -0.2056 -0.9453
vn 0.6920 -0.2056 -0.6920
vn -0.9453 -0.2056 0.2533
vn -0.6326 0.0000 0.7745
vn 0.9485 0.0000 -0.3168
vn 0.9488 0.0000 0.3160
vn -0.6343 0.0000 -0.7731
vn 0.6016 0.0000 0.7988
vn -0.0235 0.0000 -0.9997
vn -0.7069 0.0214 0.7069
vn 0.2587 -0.0293 -0.9655
vn -0.7069 -0.0214 -0.7069
vn 0.9659 0.0078 0.2588
vn -0.2587 0.0293 0.9655
vn -0.9659 -0.0078 -0.2588
vn 0.9659 -0.0078 -0.2588
vn 0.2587 0.0293 0.9655
vn -0.9659 0.0078 0.2588
vn 0.7069 -0.0214 -0.7069
vn -0.2587 -0.0293 -0.9655
vn 0.7069 0.0214 0.7069
vn 0.7071 0.0000 -0.7071
vn -0.9659 0.0000 0.2588
vn 0.2588 0.0000 0.9659
vn 0.9659 0.0000 -0.2588
vn -0.9659 -0.0000 -0.2588
vn -0.2588 -0.0000 0.9659
vn 0.9659 0.0000 0.2588
vn -0.7071 -0.0000 -0.7071
vn 0.2588 0.0000 -0.9659
vn -0.7071 -0.0000 0.7071
vn 0.7071 0.0000 0.7071
vn -0.2588 -0.0000 -0.9659
vn -0.2580 0.0785 -0.9629
vn -0.7049 0.0785 -0.7049
vn -0.9629 0.0785 -0.2580
vn -0.9629 0.0785 0.2580
vn -0.7049 0.0785 0.7049
vn -0.2580 0.0785 0.9629
vn 0.2580 0.0785 0.9629
vn 0.7049 0.0785 0.7049
vn 0.9629 0.0785 0.2580
vn 0.9629 0.0785 -0.2580
vn 0.7049 0.0785 -0.7049
vn 0.2580 0.0785 -0.9629
vn 0.5211 0.6759 0.5211
vn -0.1907 0.6759 -0.7118
vn 0.5211 0.6759 -0.5211
vn -0.7118 0.6759 0.1907
vn 0.1907 0.6759 0.7118
vn 0.7118 0.6759 -0.1907
vn -0.7118 0.6759 -0.1907
vn -0.1907 0.6759 0.7118
vn 0.7118 0.6759 0.1907
vn -0.5211 0.6759 -0.5211
vn 0.1907 0.6759 -0.7118
vn -0.5211 0.6759 0.5211
vn -0.0206 0.0000 0.9998
vn 0.0833 0.0000 -0.9965
vn -0.7560 0.0000 0.6546
vn 0.4290 0.0000 -0.9033
vn 0.0734 0.0000 0.9973
vn -0.4034 0.0000 0.9150
vn 0.0148 0.0000 -0.9999
vn 0.0129 -0.0000 0.9999
vn -0.4018 0.0000 -0.9157
vn -0.9712 0.0000 0.2384
vn 0.7750 0.0000 -0.6319
vn -0.9597 0.0000 -0.2811
vn 0.9784 0.0000 -0.2069
vn 0.7742 0.0000 0.6329
vn -0.9710 0.0000 -0.2389
vn 0.9783 0.0000 0.2074
vn -0.9595 0.0000 0.2818
vn 0.4274 0.0000 0.9040
vn -0.7551 0.0000 -0.6556
vn 0.5998 0.0000 -0.8001
usemtl Material.004
s off
f 24/1/1 20/2/1 18/3/1
f 20/4/2 7/5/2 10/6/2 27/7/2
f 26/8/3 12/9/3 17/10/3 13/11/3
f 10/6/4 9/12/4 14/13/4 15/14/4
f 21/15/5 2/16/5 12/9/5 26/8/5
f 2/16/6 18/17/6 11/18/6 12/9/6
f 7/5/7 4/19/7 9/12/7 10/6/7
f 23/20/8 13/11/8 17/10/8 16/21/8
f 27/7/1 10/6/1 15/14/1 23/20/1
f 12/9/9 11/18/9 16/21/9 17/10/9
f 25/22/4 19/23/4 29/24/4 31/25/4
f 54/26/9 57/27/9 364/28/9 367/29/9
f 22/30/1 24/1/1 18/3/1 5/31/1
f 59/32/4 58/33/4 365/34/4 366/35/4
f 8/36/3 21/37/3 4/38/3 3/39/3
f 1/40/3 2/41/3 21/37/3 8/36/3
f 11/18/1 27/7/1 23/20/1 16/21/1
f 18/17/10 20/4/10 27/7/10 11/18/10
f 19/23/1 20/2/1 24/1/1
f 6/42/1 7/43/1 19/23/1 25/22/1
f 9/12/3 26/8/3 13/11/3 14/13/3
f 15/14/11 14/13/11 13/11/11 23/20/11
f 4/19/12 21/15/12 26/8/12 9/12/12
f 7/43/1 20/2/1 19/23/1
f 30/44/13 28/45/13 32/46/13 36/47/13
f 31/25/14 29/24/14 34/48/14 33/49/14
f 24/1/9 22/30/9 28/45/9 30/44/9
f 19/23/15 24/1/15 30/44/15 29/24/15
f 42/50/1 38/51/1 43/52/1 35/53/1
f 36/47/4 32/46/4 38/54/4 42/55/4
f 39/56/1 40/57/1 37/58/1 41/59/1
f 29/24/16 30/44/16 36/47/16 34/48/16
f 40/57/1 42/50/1 35/53/1 37/58/1
f 38/51/1 39/56/1 41/59/1 43/52/1
f 32/46/15 33/49/15 39/60/15 38/54/15
f 37/58/17 35/53/17 352/61/17 354/62/17
f 34/48/17 36/47/17 42/55/17 40/63/17
f 33/49/9 34/48/9 40/63/9 39/60/9
f 5/31/9 18/3/9 45/64/9 44/65/9
f 18/3/9 2/41/9 46/66/9 45/64/9
f 2/41/9 1/40/9 47/67/9 46/66/9
f 1/40/9 5/31/9 44/65/9 47/67/9
f 3/39/4 4/38/4 49/68/4 48/69/4
f 4/38/4 7/43/4 50/70/4 49/68/4
f 7/43/4 6/42/4 51/71/4 50/70/4
f 6/42/4 3/39/4 48/69/4 51/71/4
f 360/72/1 356/73/1 365/34/1 368/74/1
f 47/67/17 44/65/17 56/75/17 57/27/17
f 50/70/1 51/71/1 59/32/1 52/76/1
f 357/77/1 363/78/1 367/29/1 364/28/1
f 46/66/3 47/67/3 57/27/3 54/26/3
f 49/68/15 50/70/15 52/76/15 53/79/15
f 363/78/17 359/80/17 371/81/17 367/29/17
f 45/64/15 46/66/15 54/26/15 55/82/15
f 180/83/18 60/84/18 61/85/18 181/86/18
f 181/86/19 61/85/19 62/87/19 182/88/19
f 182/88/20 62/87/20 63/89/20 183/90/20
f 183/90/21 63/89/21 64/91/21 184/92/21
f 184/92/22 64/91/22 65/93/22 185/94/22
f 185/94/23 65/93/23 66/95/23 186/96/23
f 186/96/24 66/95/24 67/97/24 187/98/24
f 187/98/25 67/97/25 68/99/25 188/100/25
f 188/100/26 68/99/26 69/101/26 189/102/26
f 189/102/27 69/101/27 70/103/27 190/104/27
f 64/105/17 63/106/17 73/107/17 74/108/17
f 190/104/28 70/103/28 71/109/28 191/110/28
f 191/110/29 71/109/29 60/84/29 180/83/29
f 60/111/17 71/112/17 83/113/17 77/114/17
f 61/115/17 60/111/17 77/114/17 72/116/17
f 63/106/17 62/117/17 78/118/17 73/107/17
f 71/112/17 70/119/17 82/120/17 83/113/17
f 62/117/17 61/115/17 72/116/17 78/118/17
f 70/119/17 69/121/17 81/122/17 82/120/17
f 69/121/17 68/123/17 76/124/17 81/122/17
f 68/123/17 67/125/17 80/126/17 76/124/17
f 67/125/17 66/127/17 79/128/17 80/126/17
f 66/127/17 65/129/17 75/130/17 79/128/17
f 65/129/17 64/105/17 74/108/17 75/130/17
f 79/128/30 75/130/30 89/131/30 90/132/30
f 90/132/15 89/131/15 104/133/15 105/134/15
f 73/107/31 78/118/31 86/135/31 87/136/31
f 82/120/32 81/122/32 93/137/32 94/138/32
f 80/126/33 79/128/33 90/132/33 91/139/33
f 74/108/34 73/107/34 87/136/34 88/140/34
f 83/113/35 82/120/35 94/138/35 95/141/35
f 72/116/36 77/114/36 84/142/36 85/143/36
f 76/124/37 80/126/37 91/139/37 92/144/37
f 75/130/38 74/108/38 88/140/38 89/131/38
f 77/114/39 83/113/39 95/141/39 84/142/39
f 78/118/40 72/116/40 85/143/40 86/135/40
f 81/122/41 76/124/41 92/144/41 93/137/41
f 87/136/15 86/135/15 97/145/15 98/146/15
f 94/138/15 93/137/15 101/147/15 106/148/15
f 91/139/15 90/132/15 105/134/15 99/149/15
f 88/140/15 87/136/15 98/146/15 103/150/15
f 95/141/15 94/138/15 106/148/15 107/151/15
f 85/143/15 84/142/15 96/152/15 102/153/15
f 92/144/15 91/139/15 99/149/15 100/154/15
f 89/131/15 88/140/15 103/150/15 104/133/15
f 84/142/15 95/141/15 107/151/15 96/152/15
f 86/135/15 85/143/15 102/153/15 97/145/15
f 93/137/15 92/144/15 100/154/15 101/147/15
f 173/155/42 174/156/42 415/157/42 413/158/42
f 134/159/17 135/160/17 374/161/17 375/162/17
f 175/163/43 172/164/43 412/165/43 414/166/43
f 133/167/44 134/159/44 375/162/44 373/168/44
f 172/164/15 173/155/15 413/158/15 412/165/15
f 135/160/45 132/169/45 372/170/45 374/161/45
f 146/171/17 147/172/17 386/173/17 387/174/17
f 132/169/15 133/167/15 373/168/15 372/170/15
f 145/175/46 146/171/46 387/174/46 385/176/46
f 147/172/47 144/177/47 384/178/47 386/173/47
f 158/179/17 159/180/17 398/181/17 399/182/17
f 144/177/15 145/175/15 385/176/15 384/178/15
f 111/183/17 115/184/17 124/185/17 125/186/17
f 109/187/17 113/188/17 131/189/17 121/190/17
f 114/191/17 108/192/17 120/193/17 122/194/17
f 118/195/17 117/196/17 128/197/17 129/198/17
f 112/199/17 111/183/17 125/186/17 126/200/17
f 110/201/17 114/191/17 122/194/17 123/202/17
f 119/203/17 118/195/17 129/198/17 130/204/17
f 116/205/17 112/199/17 126/200/17 127/206/17
f 115/184/17 110/201/17 123/202/17 124/185/17
f 113/188/17 119/203/17 130/204/17 131/189/17
f 108/192/17 109/187/17 121/190/17 120/193/17
f 117/196/17 116/205/17 127/206/17 128/197/17
f 128/197/48 127/206/48 335/207/48 336/208/48
f 120/193/49 121/190/49 329/209/49 328/210/49
f 131/189/50 130/204/50 338/211/50 339/212/50
f 124/185/51 123/202/51 331/213/51 332/214/51
f 127/206/52 126/200/52 334/215/52 335/207/52
f 130/204/53 129/198/53 337/216/53 338/211/53
f 123/202/54 122/194/54 330/217/54 331/213/54
f 126/200/55 125/186/55 333/218/55 334/215/55
f 129/198/56 128/197/56 336/208/56 337/216/56
f 122/194/57 120/193/57 328/210/57 330/217/57
f 121/190/58 131/189/58 339/212/58 329/209/58
f 125/186/59 124/185/59 332/214/59 333/218/59
f 97/145/60 102/153/60 133/167/60 132/169/60
f 102/153/60 108/192/60 134/159/60 133/167/60
f 108/192/60 114/191/60 135/160/60 134/159/60
f 114/191/60 97/145/60 132/169/60 135/160/60
f 101/147/61 100/154/61 137/219/61 136/220/61
f 100/154/61 117/196/61 138/221/61 137/219/61
f 117/196/61 118/195/61 139/222/61 138/221/61
f 118/195/61 101/147/61 136/220/61 139/222/61
f 105/134/62 104/133/62 141/223/62 140/224/62
f 104/133/62 111/183/62 142/225/62 141/223/62
f 111/183/62 112/199/62 143/226/62 142/225/62
f 112/199/62 105/134/62 140/224/62 143/226/62
f 98/146/63 97/145/63 145/175/63 144/177/63
f 97/145/63 114/191/63 146/171/63 145/175/63
f 114/191/63 110/201/63 147/172/63 146/171/63
f 110/201/63 98/146/63 144/177/63 147/172/63
f 106/148/64 101/147/64 149/227/64 148/228/64
f 101/147/64 118/195/64 150/229/64 149/227/64
f 118/195/64 119/203/64 151/230/64 150/229/64
f 119/203/64 106/148/64 148/228/64 151/230/64
f 99/149/65 105/134/65 153/231/65 152/232/65
f 105/134/65 112/199/65 154/233/65 153/231/65
f 112/199/65 116/205/65 155/234/65 154/233/65
f 116/205/65 99/149/65 152/232/65 155/234/65
f 103/150/66 98/146/66 157/235/66 156/236/66
f 98/146/66 110/201/66 158/179/66 157/235/66
f 110/201/66 115/184/66 159/180/66 158/179/66
f 115/184/66 103/150/66 156/236/66 159/180/66
f 107/151/67 106/148/67 161/237/67 160/238/67
f 106/148/67 119/203/67 162/239/67 161/237/67
f 119/203/67 113/188/67 163/240/67 162/239/67
f 113/188/67 107/151/67 160/238/67 163/240/67
f 102/153/68 96/152/68 165/241/68 164/242/68
f 96/152/68 109/187/68 166/243/68 165/241/68
f 109/187/68 108/192/68 167/244/68 166/243/68
f 108/192/68 102/153/68 164/242/68 167/244/68
f 100/154/69 99/149/69 169/245/69 168/246/69
f 99/149/69 116/205/69 170/247/69 169/245/69
f 116/205/69 117/196/69 171/248/69 170/247/69
f 117/196/69 100/154/69 168/246/69 171/248/69
f 104/133/70 103/150/70 173/155/70 172/164/70
f 103/150/70 115/184/70 174/156/70 173/155/70
f 115/184/70 111/183/70 175/163/70 174/156/70
f 111/183/70 104/133/70 172/164/70 175/163/70
f 96/152/71 107/151/71 177/249/71 176/250/71
f 107/151/71 113/188/71 178/251/71 177/249/71
f 113/188/71 109/187/71 179/252/71 178/251/71
f 109/187/71 96/152/71 176/250/71 179/252/71
f 183/253/15 184/254/15 200/255/15 198/256/15
f 191/257/15 180/258/15 215/259/15 214/260/15
f 184/254/15 185/261/15 202/262/15 200/255/15
f 185/261/15 186/263/15 204/264/15 202/262/15
f 186/263/15 187/265/15 206/266/15 204/264/15
f 213/267/72 214/260/72 215/259/72 192/268/72
f 211/269/73 212/270/73 214/260/73 213/267/73
f 209/271/74 210/272/74 212/270/74 211/269/74
f 207/273/75 208/274/75 210/272/75 209/271/75
f 205/275/76 206/266/76 208/274/76 207/273/76
f 203/276/77 204/264/77 206/266/77 205/275/77
f 201/277/78 202/262/78 204/264/78 203/276/78
f 199/278/79 200/255/79 202/262/79 201/277/79
f 197/279/80 198/256/80 200/255/80 199/278/80
f 195/280/81 196/281/81 198/256/81 197/279/81
f 193/282/82 194/283/82 196/281/82 195/280/82
f 192/268/83 215/259/83 194/283/83 193/282/83
f 190/284/15 191/257/15 214/260/15 212/270/15
f 182/285/15 183/253/15 198/256/15 196/281/15
f 189/286/15 190/284/15 212/270/15 210/272/15
f 181/287/15 182/285/15 196/281/15 194/283/15
f 188/288/15 189/286/15 210/272/15 208/274/15
f 180/258/15 181/287/15 194/283/15 215/259/15
f 187/265/15 188/288/15 208/274/15 206/266/15
f 216/289/69 217/290/69 219/291/69 218/292/69
f 218/292/67 219/291/67 223/293/67 222/294/67
f 222/294/60 223/293/60 221/295/60 220/296/60
f 220/296/70 221/295/70 217/290/70 216/289/70
f 218/292/17 222/294/17 220/296/17 216/289/17
f 223/293/15 219/291/15 217/290/15 221/295/15
f 224/297/60 226/298/60 227/299/60 225/300/60
f 226/298/67 230/301/67 231/302/67 227/299/67
f 230/301/69 228/303/69 229/304/69 231/302/69
f 228/303/70 224/297/70 225/300/70 229/304/70
f 226/298/17 224/297/17 228/303/17 230/301/17
f 231/302/15 229/304/15 225/300/15 227/299/15
f 232/305/69 234/306/69 235/307/69 233/308/69
f 234/306/70 238/309/70 239/310/70 235/307/70
f 238/309/60 236/311/60 237/312/60 239/310/60
f 236/311/67 232/305/67 233/308/67 237/312/67
f 234/306/17 232/305/17 236/311/17 238/309/17
f 239/310/15 237/312/15 233/308/15 235/307/15
f 240/313/60 241/314/60 243/315/60 242/316/60
f 242/316/70 243/315/70 247/317/70 246/318/70
f 246/318/69 247/317/69 245/319/69 244/320/69
f 244/320/67 245/319/67 241/314/67 240/313/67
f 242/316/17 246/318/17 244/320/17 240/313/17
f 247/317/15 243/315/15 241/314/15 245/319/15
f 248/321/3 249/322/3 251/323/3 250/324/3
f 250/324/4 251/323/4 255/325/4 254/326/4
f 254/326/1 255/325/1 253/327/1 252/328/1
f 252/328/9 253/327/9 249/322/9 248/321/9
f 250/324/17 254/326/17 252/328/17 248/321/17
f 255/325/15 251/323/15 249/322/15 253/327/15
f 256/329/1 258/330/1 259/331/1 257/332/1
f 258/330/4 262/333/4 263/334/4 259/331/4
f 262/333/3 260/335/3 261/336/3 263/334/3
f 260/335/9 256/329/9 257/332/9 261/336/9
f 258/330/17 256/329/17 260/335/17 262/333/17
f 263/334/15 261/336/15 257/332/15 259/331/15
f 264/337/3 266/338/3 267/339/3 265/340/3
f 266/338/9 270/341/9 271/342/9 267/339/9
f 270/341/1 268/343/1 269/344/1 271/342/1
f 268/343/4 264/337/4 265/340/4 269/344/4
f 266/338/17 264/337/17 268/343/17 270/341/17
f 271/342/15 269/344/15 265/340/15 267/339/15
f 272/345/1 273/346/1 275/347/1 274/348/1
f 274/348/9 275/347/9 279/349/9 278/350/9
f 278/350/3 279/349/3 277/351/3 276/352/3
f 276/352/4 277/351/4 273/346/4 272/345/4
f 274/348/17 278/350/17 276/352/17 272/345/17
f 279/349/15 275/347/15 273/346/15 277/351/15
f 286/353/17 298/354/17 297/355/17 285/356/17
f 283/357/17 295/358/17 294/359/17 282/360/17
f 290/361/17 302/362/17 301/363/17 289/364/17
f 287/365/17 299/366/17 298/354/17 286/353/17
f 284/367/17 296/368/17 295/358/17 283/357/17
f 291/369/17 303/370/17 302/362/17 290/361/17
f 281/371/17 293/372/17 292/373/17 280/374/17
f 288/375/17 300/376/17 299/366/17 287/365/17
f 285/356/17 297/355/17 296/368/17 284/367/17
f 280/374/17 292/373/17 303/370/17 291/369/17
f 282/360/17 294/359/17 293/372/17 281/371/17
f 289/364/17 301/363/17 300/376/17 288/375/17
f 310/377/15 309/378/15 321/379/15 322/380/15
f 307/381/15 306/382/15 318/383/15 319/384/15
f 314/385/15 313/386/15 325/387/15 326/388/15
f 311/389/15 310/377/15 322/380/15 323/390/15
f 308/391/15 307/381/15 319/384/15 320/392/15
f 315/393/15 314/385/15 326/388/15 327/394/15
f 304/395/15 305/396/15 317/397/15 316/398/15
f 312/399/15 311/389/15 323/390/15 324/400/15
f 309/378/15 308/391/15 320/392/15 321/379/15
f 305/396/15 315/393/15 327/394/15 317/397/15
f 306/382/15 304/395/15 316/398/15 318/383/15
f 313/386/15 312/399/15 324/400/15 325/387/15
f 287/365/65 286/353/65 310/377/65 311/389/65
f 301/363/66 302/362/66 326/388/66 325/387/66
f 294/359/61 295/358/61 319/384/61 318/383/61
f 288/375/69 287/365/69 311/389/69 312/399/69
f 302/362/70 303/370/70 327/394/70 326/388/70
f 281/371/68 280/374/68 305/396/68 304/395/68
f 295/358/64 296/368/64 320/392/64 319/384/64
f 289/364/61 288/375/61 312/399/61 313/386/61
f 303/370/62 292/373/62 317/397/62 327/394/62
f 282/360/60 281/371/60 304/395/60 306/382/60
f 296/368/67 297/355/67 321/379/67 320/392/67
f 290/361/64 289/364/64 313/386/64 314/385/64
f 283/357/63 282/360/63 306/382/63 307/381/63
f 297/355/71 298/354/71 322/380/71 321/379/71
f 291/369/67 290/361/67 314/385/67 315/393/67
f 284/367/66 283/357/66 307/381/66 308/391/66
f 298/354/68 299/366/68 323/390/68 322/380/68
f 280/374/71 291/369/71 315/393/71 305/396/71
f 285/356/70 284/367/70 308/391/70 309/378/70
f 299/366/60 300/376/60 324/400/60 323/390/60
f 292/373/65 293/372/65 316/398/65 317/397/65
f 286/353/62 285/356/62 309/378/62 310/377/62
f 300/376/63 301/363/63 325/387/63 324/400/63
f 293/372/69 294/359/69 318/383/69 316/398/69
f 333/218/84 332/214/84 344/401/84 345/402/84
f 340/403/15 341/404/15 351/405/15 350/406/15 349/407/15 348/408/15 347/409/15 346/410/15 345/402/15 344/401/15 343/411/15 342/412/15
f 329/209/85 339/212/85 351/405/85 341/404/85
f 330/217/86 328/210/86 340/403/86 342/412/86
f 337/216/87 336/208/87 348/408/87 349/407/87
f 334/215/88 333/218/88 345/402/88 346/410/88
f 331/213/89 330/217/89 342/412/89 343/411/89
f 338/211/90 337/216/90 349/407/90 350/406/90
f 335/207/91 334/215/91 346/410/91 347/409/91
f 332/214/92 331/213/92 343/411/92 344/401/92
f 339/212/93 338/211/93 350/406/93 351/405/93
f 328/210/94 329/209/94 341/404/94 340/403/94
f 336/208/95 335/207/95 347/409/95 348/408/95
f 157/235/96 158/179/96 399/182/96 397/413/96
f 43/52/15 41/59/15 355/414/15 353/415/15
f 41/59/9 37/58/9 354/62/9 355/414/9
f 35/53/4 43/52/4 353/415/4 352/61/4
f 358/416/9 359/417/9 363/418/9 357/419/9
f 356/420/4 360/421/4 361/422/4 362/423/4
f 57/27/9 56/75/9 370/424/9 364/28/9
f 58/33/4 53/79/4 368/74/4 365/34/4
f 52/76/4 59/32/4 366/35/4 369/425/4
f 55/82/9 54/26/9 367/29/9 371/81/9
f 53/79/4 52/76/4 369/425/4 368/74/4
f 56/75/9 55/82/9 371/81/9 370/424/9
f 361/426/17 360/72/17 368/74/17 369/425/17
f 362/427/3 361/426/3 369/425/3 366/35/3
f 356/73/15 362/427/15 366/35/15 365/34/15
f 51/71/17 48/69/17 58/33/17 59/32/17
f 358/428/15 357/77/15 364/28/15 370/424/15
f 44/65/1 45/64/1 55/82/1 56/75/1
f 359/80/3 358/428/3 370/424/3 371/81/3
f 48/69/3 49/68/3 53/79/3 58/33/3
f 372/429/60 373/430/60 375/431/60 374/432/60
f 376/433/61 377/434/61 379/435/61 378/436/61
f 380/437/62 381/438/62 383/439/62 382/440/62
f 384/441/63 385/442/63 387/443/63 386/444/63
f 388/445/64 389/446/64 391/447/64 390/448/64
f 392/449/65 393/450/65 395/451/65 394/452/65
f 396/453/66 397/454/66 399/455/66 398/456/66
f 400/457/67 401/458/67 403/459/67 402/460/67
f 404/461/68 405/462/68 407/463/68 406/464/68
f 408/465/69 409/466/69 411/467/69 410/468/69
f 412/469/70 413/470/70 415/471/70 414/472/70
f 416/473/71 417/474/71 419/475/71 418/476/71
f 423/477/1 422/478/1 420/479/1 421/480/1
f 160/238/15 161/237/15 401/481/15 400/482/15
f 352/61/97 353/415/97 421/483/97 420/484/97
f 174/156/17 175/163/17 414/166/17 415/157/17
f 163/240/98 160/238/98 400/482/98 402/485/98
f 354/62/17 352/61/17 420/484/17 422/486/17
f 161/237/99 162/239/99 403/487/99 401/481/99
f 148/228/15 149/227/15 389/488/15 388/489/15
f 355/414/100 354/62/100 422/486/100 423/490/100
f 162/239/17 163/240/17 402/485/17 403/487/17
f 151/230/101 148/228/101 388/489/101 390/491/101
f 353/415/15 355/414/15 423/490/15 421/483/15
f 149/227/102 150/229/102 391/492/102 389/488/102
f 136/220/15 137/219/15 377/493/15 376/494/15
f 150/229/17 151/230/17 390/491/17 391/492/17
f 139/222/103 136/220/103 376/494/103 378/495/103
f 176/250/15 177/249/15 417/496/15 416/497/15
f 137/219/104 138/221/104 379/498/104 377/493/104
f 179/252/105 176/250/105 416/497/105 418/499/105
f 138/221/17 139/222/17 378/495/17 379/498/17
f 177/249/106 178/251/106 419/500/106 417/496/106
f 164/242/15 165/241/15 405/501/15 404/502/15
f 178/251/17 179/252/17 418/499/17 419/500/17
f 167/244/107 164/242/107 404/502/107 406/503/107
f 165/241/108 166/243/108 407/504/108 405/501/108
f 152/232/15 153/231/15 393/505/15 392/506/15
f 166/243/17 167/244/17 406/503/17 407/504/17
f 155/234/109 152/232/109 392/506/109 394/507/109
f 153/231/110 154/233/110 395/508/110 393/505/110
f 140/224/15 141/223/15 381/509/15 380/510/15
f 154/233/17 155/234/17 394/507/17 395/508/17
f 143/226/111 140/224/111 380/510/111 382/511/111
f 141/223/112 142/225/112 383/512/112 381/509/112
f 142/225/17 143/226/17 382/511/17 383/512/17
f 168/246/15 169/245/15 409/513/15 408/514/15
f 171/248/113 168/246/113 408/514/113 410/515/113
f 169/245/114 170/247/114 411/516/114 409/513/114
f 156/236/15 157/235/15 397/413/15 396/517/15
f 170/247/17 171/248/17 410/515/17 411/516/17
f 159/180/115 156/236/115 396/517/115 398/181/115
